<mxfile host="app.diagrams.net" modified="2024-01-09T07:47:03.006Z" agent="Mozilla/5.0 (Windows NT 10.0; Win64; x64) AppleWebKit/537.36 (KHTML, like Gecko) Chrome/120.0.0.0 Safari/537.36" etag="ZTQhMSRsnqiy8FHNVIS8" version="22.1.17" type="device">
  <diagram name="Page-1" id="TjVklAgZkNygQsRRETGH">
    <mxGraphModel dx="1862" dy="511" grid="1" gridSize="10" guides="1" tooltips="1" connect="1" arrows="1" fold="1" page="1" pageScale="1" pageWidth="827" pageHeight="1169" math="0" shadow="0">
      <root>
        <mxCell id="0" />
        <mxCell id="1" parent="0" />
        <mxCell id="ZWHM6CyVMjpsxh_ZRD_X-9" value="machine locale" style="swimlane;whiteSpace=wrap;html=1;" parent="1" vertex="1">
          <mxGeometry x="-40" y="20" width="800" height="340" as="geometry" />
        </mxCell>
        <mxCell id="ZWHM6CyVMjpsxh_ZRD_X-19" value="challeng_3_default" style="rounded=0;whiteSpace=wrap;html=1;" parent="ZWHM6CyVMjpsxh_ZRD_X-9" vertex="1">
          <mxGeometry x="200" y="140" width="180" height="120" as="geometry" />
        </mxCell>
        <mxCell id="ZWHM6CyVMjpsxh_ZRD_X-20" value="Flask-app-1" style="rounded=0;whiteSpace=wrap;html=1;" parent="ZWHM6CyVMjpsxh_ZRD_X-9" vertex="1">
          <mxGeometry x="480" y="165" width="160" height="40" as="geometry" />
        </mxCell>
        <mxCell id="ZWHM6CyVMjpsxh_ZRD_X-32" value=".1" style="text;html=1;strokeColor=none;fillColor=none;align=center;verticalAlign=middle;whiteSpace=wrap;rounded=0;" parent="ZWHM6CyVMjpsxh_ZRD_X-9" vertex="1">
          <mxGeometry x="200" y="310" width="60" height="30" as="geometry" />
        </mxCell>
        <mxCell id="ZWHM6CyVMjpsxh_ZRD_X-33" value="&lt;b&gt;&lt;font style=&quot;font-size: 18px;&quot;&gt;172.20.0.0/16&lt;/font&gt;&lt;/b&gt;" style="text;html=1;strokeColor=none;fillColor=none;align=center;verticalAlign=middle;whiteSpace=wrap;rounded=0;" parent="ZWHM6CyVMjpsxh_ZRD_X-9" vertex="1">
          <mxGeometry x="510" y="45" width="240" height="65" as="geometry" />
        </mxCell>
        <mxCell id="ZWHM6CyVMjpsxh_ZRD_X-34" value=":5001" style="text;html=1;strokeColor=none;fillColor=none;align=center;verticalAlign=middle;whiteSpace=wrap;rounded=0;" parent="ZWHM6CyVMjpsxh_ZRD_X-9" vertex="1">
          <mxGeometry x="650" y="175" width="60" height="30" as="geometry" />
        </mxCell>
        <mxCell id="ZWHM6CyVMjpsxh_ZRD_X-43" value=".4" style="text;html=1;strokeColor=none;fillColor=none;align=center;verticalAlign=middle;whiteSpace=wrap;rounded=0;" parent="ZWHM6CyVMjpsxh_ZRD_X-9" vertex="1">
          <mxGeometry x="630" y="175" width="60" height="30" as="geometry" />
        </mxCell>
        <mxCell id="pRFV72ju0lPkuy1TKLql-1" value="" style="endArrow=none;html=1;rounded=0;exitX=0.994;exitY=0.367;exitDx=0;exitDy=0;exitPerimeter=0;entryX=0;entryY=0.5;entryDx=0;entryDy=0;entryPerimeter=0;" parent="ZWHM6CyVMjpsxh_ZRD_X-9" source="ZWHM6CyVMjpsxh_ZRD_X-19" target="ZWHM6CyVMjpsxh_ZRD_X-20" edge="1">
          <mxGeometry width="50" height="50" relative="1" as="geometry">
            <mxPoint x="390" y="190" as="sourcePoint" />
            <mxPoint x="440" y="180" as="targetPoint" />
          </mxGeometry>
        </mxCell>
        <mxCell id="pRFV72ju0lPkuy1TKLql-3" value="" style="endArrow=none;html=1;rounded=0;entryX=0;entryY=0.875;entryDx=0;entryDy=0;entryPerimeter=0;" parent="ZWHM6CyVMjpsxh_ZRD_X-9" source="ZWHM6CyVMjpsxh_ZRD_X-19" edge="1" target="ZWHM6CyVMjpsxh_ZRD_X-20">
          <mxGeometry width="50" height="50" relative="1" as="geometry">
            <mxPoint x="440" y="210" as="sourcePoint" />
            <mxPoint x="450.71067811865476" y="200" as="targetPoint" />
          </mxGeometry>
        </mxCell>
        <mxCell id="pRFV72ju0lPkuy1TKLql-4" value="MongoDB" style="rounded=0;whiteSpace=wrap;html=1;" parent="ZWHM6CyVMjpsxh_ZRD_X-9" vertex="1">
          <mxGeometry x="20" y="155" width="120" height="60" as="geometry" />
        </mxCell>
        <mxCell id="pRFV72ju0lPkuy1TKLql-6" value="" style="endArrow=none;html=1;rounded=0;exitX=1.008;exitY=0.367;exitDx=0;exitDy=0;exitPerimeter=0;entryX=-0.017;entryY=0.308;entryDx=0;entryDy=0;entryPerimeter=0;" parent="ZWHM6CyVMjpsxh_ZRD_X-9" source="pRFV72ju0lPkuy1TKLql-4" target="ZWHM6CyVMjpsxh_ZRD_X-19" edge="1">
          <mxGeometry width="50" height="50" relative="1" as="geometry">
            <mxPoint x="150" y="210" as="sourcePoint" />
            <mxPoint x="200" y="160" as="targetPoint" />
          </mxGeometry>
        </mxCell>
        <mxCell id="pRFV72ju0lPkuy1TKLql-7" value="" style="endArrow=none;html=1;rounded=0;entryX=0;entryY=0.5;entryDx=0;entryDy=0;exitX=1;exitY=0.75;exitDx=0;exitDy=0;" parent="ZWHM6CyVMjpsxh_ZRD_X-9" source="pRFV72ju0lPkuy1TKLql-4" target="ZWHM6CyVMjpsxh_ZRD_X-19" edge="1">
          <mxGeometry width="50" height="50" relative="1" as="geometry">
            <mxPoint x="140" y="250" as="sourcePoint" />
            <mxPoint x="190" y="200" as="targetPoint" />
          </mxGeometry>
        </mxCell>
        <mxCell id="pRFV72ju0lPkuy1TKLql-9" value=".2:27017" style="text;html=1;strokeColor=none;fillColor=none;align=center;verticalAlign=middle;whiteSpace=wrap;rounded=0;" parent="ZWHM6CyVMjpsxh_ZRD_X-9" vertex="1">
          <mxGeometry x="40" y="125" width="60" height="30" as="geometry" />
        </mxCell>
        <mxCell id="GPdO8PadSVINnt44juyN-26" value="Nginx" style="rounded=0;whiteSpace=wrap;html=1;" vertex="1" parent="ZWHM6CyVMjpsxh_ZRD_X-9">
          <mxGeometry x="220" y="40" width="120" height="60" as="geometry" />
        </mxCell>
        <mxCell id="GPdO8PadSVINnt44juyN-27" value="Flask-app-2" style="rounded=0;whiteSpace=wrap;html=1;" vertex="1" parent="ZWHM6CyVMjpsxh_ZRD_X-9">
          <mxGeometry x="480" y="220" width="160" height="40" as="geometry" />
        </mxCell>
        <mxCell id="GPdO8PadSVINnt44juyN-28" value="" style="endArrow=none;html=1;rounded=0;exitX=1;exitY=0.75;exitDx=0;exitDy=0;entryX=0;entryY=0.25;entryDx=0;entryDy=0;" edge="1" parent="ZWHM6CyVMjpsxh_ZRD_X-9" source="ZWHM6CyVMjpsxh_ZRD_X-19" target="GPdO8PadSVINnt44juyN-27">
          <mxGeometry width="50" height="50" relative="1" as="geometry">
            <mxPoint x="420" y="260" as="sourcePoint" />
            <mxPoint x="470" y="210" as="targetPoint" />
          </mxGeometry>
        </mxCell>
        <mxCell id="GPdO8PadSVINnt44juyN-29" value="" style="endArrow=none;html=1;rounded=0;exitX=1;exitY=0.917;exitDx=0;exitDy=0;exitPerimeter=0;entryX=0;entryY=0.75;entryDx=0;entryDy=0;" edge="1" parent="ZWHM6CyVMjpsxh_ZRD_X-9" source="ZWHM6CyVMjpsxh_ZRD_X-19" target="GPdO8PadSVINnt44juyN-27">
          <mxGeometry width="50" height="50" relative="1" as="geometry">
            <mxPoint x="400" y="300" as="sourcePoint" />
            <mxPoint x="450" y="250" as="targetPoint" />
          </mxGeometry>
        </mxCell>
        <mxCell id="GPdO8PadSVINnt44juyN-30" value=".3" style="text;html=1;strokeColor=none;fillColor=none;align=center;verticalAlign=middle;whiteSpace=wrap;rounded=0;" vertex="1" parent="ZWHM6CyVMjpsxh_ZRD_X-9">
          <mxGeometry x="630" y="225" width="60" height="30" as="geometry" />
        </mxCell>
        <mxCell id="GPdO8PadSVINnt44juyN-31" value=":5002" style="text;html=1;strokeColor=none;fillColor=none;align=center;verticalAlign=middle;whiteSpace=wrap;rounded=0;" vertex="1" parent="ZWHM6CyVMjpsxh_ZRD_X-9">
          <mxGeometry x="650" y="225" width="60" height="30" as="geometry" />
        </mxCell>
        <mxCell id="GPdO8PadSVINnt44juyN-33" value="" style="endArrow=none;html=1;rounded=0;exitX=0.342;exitY=-0.013;exitDx=0;exitDy=0;exitPerimeter=0;entryX=0.371;entryY=1.013;entryDx=0;entryDy=0;entryPerimeter=0;" edge="1" parent="ZWHM6CyVMjpsxh_ZRD_X-9" source="ZWHM6CyVMjpsxh_ZRD_X-19" target="GPdO8PadSVINnt44juyN-26">
          <mxGeometry width="50" height="50" relative="1" as="geometry">
            <mxPoint x="270" y="150" as="sourcePoint" />
            <mxPoint x="320" y="100" as="targetPoint" />
          </mxGeometry>
        </mxCell>
        <mxCell id="GPdO8PadSVINnt44juyN-34" value="" style="endArrow=none;html=1;rounded=0;entryX=0.5;entryY=1;entryDx=0;entryDy=0;exitX=0.433;exitY=0.006;exitDx=0;exitDy=0;exitPerimeter=0;" edge="1" parent="ZWHM6CyVMjpsxh_ZRD_X-9" source="ZWHM6CyVMjpsxh_ZRD_X-19" target="GPdO8PadSVINnt44juyN-26">
          <mxGeometry width="50" height="50" relative="1" as="geometry">
            <mxPoint x="290" y="140" as="sourcePoint" />
            <mxPoint x="450" y="60" as="targetPoint" />
          </mxGeometry>
        </mxCell>
        <mxCell id="GPdO8PadSVINnt44juyN-35" value=".5" style="text;html=1;strokeColor=none;fillColor=none;align=center;verticalAlign=middle;whiteSpace=wrap;rounded=0;" vertex="1" parent="ZWHM6CyVMjpsxh_ZRD_X-9">
          <mxGeometry x="350" y="62.5" width="40" height="17.5" as="geometry" />
        </mxCell>
        <mxCell id="GPdO8PadSVINnt44juyN-36" value=":80" style="text;html=1;strokeColor=none;fillColor=none;align=center;verticalAlign=middle;whiteSpace=wrap;rounded=0;" vertex="1" parent="ZWHM6CyVMjpsxh_ZRD_X-9">
          <mxGeometry x="360" y="56.25" width="60" height="30" as="geometry" />
        </mxCell>
        <mxCell id="ZWHM6CyVMjpsxh_ZRD_X-22" value="" style="endArrow=none;html=1;rounded=0;" parent="1" edge="1">
          <mxGeometry width="50" height="50" relative="1" as="geometry">
            <mxPoint x="230" y="380" as="sourcePoint" />
            <mxPoint x="230" y="340" as="targetPoint" />
            <Array as="points">
              <mxPoint x="230" y="340" />
              <mxPoint x="230" y="280" />
            </Array>
          </mxGeometry>
        </mxCell>
        <mxCell id="ZWHM6CyVMjpsxh_ZRD_X-30" value="http:192.168.110.226:80" style="text;html=1;strokeColor=none;fillColor=none;align=center;verticalAlign=middle;whiteSpace=wrap;rounded=0;" parent="1" vertex="1">
          <mxGeometry x="465" y="580" width="275" height="45" as="geometry" />
        </mxCell>
        <mxCell id="ZWHM6CyVMjpsxh_ZRD_X-35" value="" style="endArrow=none;html=1;rounded=0;" parent="1" edge="1">
          <mxGeometry width="50" height="50" relative="1" as="geometry">
            <mxPoint x="230" y="450" as="sourcePoint" />
            <mxPoint x="700" y="450" as="targetPoint" />
          </mxGeometry>
        </mxCell>
        <mxCell id="ZWHM6CyVMjpsxh_ZRD_X-36" value="" style="endArrow=none;html=1;rounded=0;" parent="1" edge="1">
          <mxGeometry width="50" height="50" relative="1" as="geometry">
            <mxPoint x="105.5" y="480" as="sourcePoint" />
            <mxPoint x="574.5" y="480" as="targetPoint" />
          </mxGeometry>
        </mxCell>
        <mxCell id="ZWHM6CyVMjpsxh_ZRD_X-37" value="LAN 192.168.96.0/24" style="text;html=1;strokeColor=none;fillColor=none;align=center;verticalAlign=middle;whiteSpace=wrap;rounded=0;" parent="1" vertex="1">
          <mxGeometry x="310" y="450" width="130" height="30" as="geometry" />
        </mxCell>
        <mxCell id="ZWHM6CyVMjpsxh_ZRD_X-38" value="" style="endArrow=none;html=1;rounded=0;" parent="1" edge="1">
          <mxGeometry width="50" height="50" relative="1" as="geometry">
            <mxPoint x="210" y="380" as="sourcePoint" />
            <mxPoint x="210" y="280" as="targetPoint" />
          </mxGeometry>
        </mxCell>
        <mxCell id="ZWHM6CyVMjpsxh_ZRD_X-39" value="" style="endArrow=none;html=1;rounded=0;" parent="1" edge="1">
          <mxGeometry width="50" height="50" relative="1" as="geometry">
            <mxPoint x="230" y="370" as="sourcePoint" />
            <mxPoint x="230" y="380" as="targetPoint" />
          </mxGeometry>
        </mxCell>
        <mxCell id="ZWHM6CyVMjpsxh_ZRD_X-41" value="" style="endArrow=none;html=1;rounded=0;" parent="1" edge="1">
          <mxGeometry width="50" height="50" relative="1" as="geometry">
            <mxPoint x="100" y="450" as="sourcePoint" />
            <mxPoint x="210" y="450" as="targetPoint" />
          </mxGeometry>
        </mxCell>
        <mxCell id="ZWHM6CyVMjpsxh_ZRD_X-45" value="" style="endArrow=none;html=1;rounded=0;" parent="1" edge="1">
          <mxGeometry width="50" height="50" relative="1" as="geometry">
            <mxPoint x="585.3846153846148" y="540" as="sourcePoint" />
            <mxPoint x="580" y="480" as="targetPoint" />
            <Array as="points">
              <mxPoint x="580" y="530" />
              <mxPoint x="580" y="560" />
            </Array>
          </mxGeometry>
        </mxCell>
        <mxCell id="ZWHM6CyVMjpsxh_ZRD_X-46" value="" style="endArrow=none;html=1;rounded=0;" parent="1" edge="1">
          <mxGeometry width="50" height="50" relative="1" as="geometry">
            <mxPoint x="610" y="560" as="sourcePoint" />
            <mxPoint x="610" y="490" as="targetPoint" />
            <Array as="points">
              <mxPoint x="608" y="480" />
            </Array>
          </mxGeometry>
        </mxCell>
        <mxCell id="ZWHM6CyVMjpsxh_ZRD_X-47" value="" style="endArrow=none;html=1;rounded=0;" parent="1" edge="1">
          <mxGeometry width="50" height="50" relative="1" as="geometry">
            <mxPoint x="610" y="480" as="sourcePoint" />
            <mxPoint x="700" y="480" as="targetPoint" />
          </mxGeometry>
        </mxCell>
        <mxCell id="GPdO8PadSVINnt44juyN-1" value="" style="rounded=0;whiteSpace=wrap;html=1;" vertex="1" parent="1">
          <mxGeometry x="180" y="360" width="90" height="60" as="geometry" />
        </mxCell>
        <mxCell id="GPdO8PadSVINnt44juyN-2" value="interface docker0" style="text;html=1;strokeColor=none;fillColor=none;align=center;verticalAlign=middle;whiteSpace=wrap;rounded=0;" vertex="1" parent="1">
          <mxGeometry x="190" y="380" width="60" height="35" as="geometry" />
        </mxCell>
        <mxCell id="GPdO8PadSVINnt44juyN-5" value="" style="endArrow=none;html=1;rounded=0;" edge="1" parent="1">
          <mxGeometry width="50" height="50" relative="1" as="geometry">
            <mxPoint x="210" y="450" as="sourcePoint" />
            <mxPoint x="210" y="425" as="targetPoint" />
          </mxGeometry>
        </mxCell>
        <mxCell id="GPdO8PadSVINnt44juyN-6" value="" style="endArrow=none;html=1;rounded=0;entryX=0.5;entryY=1;entryDx=0;entryDy=0;" edge="1" parent="1" target="GPdO8PadSVINnt44juyN-1">
          <mxGeometry width="50" height="50" relative="1" as="geometry">
            <mxPoint x="230" y="450" as="sourcePoint" />
            <mxPoint x="280" y="550" as="targetPoint" />
          </mxGeometry>
        </mxCell>
        <mxCell id="GPdO8PadSVINnt44juyN-7" value="" style="rounded=0;whiteSpace=wrap;html=1;" vertex="1" parent="1">
          <mxGeometry x="-200" y="270" width="140" height="65" as="geometry" />
        </mxCell>
        <mxCell id="GPdO8PadSVINnt44juyN-8" value="Interface Loopback" style="text;html=1;strokeColor=none;fillColor=none;align=center;verticalAlign=middle;whiteSpace=wrap;rounded=0;" vertex="1" parent="1">
          <mxGeometry x="-160" y="287.5" width="60" height="30" as="geometry" />
        </mxCell>
        <mxCell id="GPdO8PadSVINnt44juyN-10" value="http://127.0.0.1:80" style="text;html=1;strokeColor=none;fillColor=none;align=center;verticalAlign=middle;whiteSpace=wrap;rounded=0;" vertex="1" parent="1">
          <mxGeometry x="-170" y="340" width="60" height="30" as="geometry" />
        </mxCell>
        <mxCell id="GPdO8PadSVINnt44juyN-12" value="" style="endArrow=none;html=1;rounded=0;entryX=0;entryY=0.5;entryDx=0;entryDy=0;" edge="1" parent="1">
          <mxGeometry width="50" height="50" relative="1" as="geometry">
            <mxPoint x="-180" y="410" as="sourcePoint" />
            <mxPoint x="180" y="410" as="targetPoint" />
            <Array as="points">
              <mxPoint x="-20" y="410" />
            </Array>
          </mxGeometry>
        </mxCell>
        <mxCell id="GPdO8PadSVINnt44juyN-14" value="" style="endArrow=none;html=1;rounded=0;entryX=0;entryY=0.5;entryDx=0;entryDy=0;" edge="1" parent="1">
          <mxGeometry width="50" height="50" relative="1" as="geometry">
            <mxPoint x="-150" y="385" as="sourcePoint" />
            <mxPoint x="180" y="385" as="targetPoint" />
          </mxGeometry>
        </mxCell>
        <mxCell id="GPdO8PadSVINnt44juyN-21" value="" style="endArrow=classic;html=1;rounded=0;" edge="1" parent="1">
          <mxGeometry width="50" height="50" relative="1" as="geometry">
            <mxPoint x="10" y="399.58" as="sourcePoint" />
            <mxPoint x="40" y="399.58" as="targetPoint" />
          </mxGeometry>
        </mxCell>
        <mxCell id="GPdO8PadSVINnt44juyN-23" value="" style="endArrow=none;html=1;rounded=0;" edge="1" parent="1">
          <mxGeometry width="50" height="50" relative="1" as="geometry">
            <mxPoint x="-180" y="410" as="sourcePoint" />
            <mxPoint x="-180" y="370" as="targetPoint" />
          </mxGeometry>
        </mxCell>
      </root>
    </mxGraphModel>
  </diagram>
</mxfile>
